<?xml version="1.0" encoding="UTF-8" standalone="no"?>
<!-- Created with Inkscape (http://www.inkscape.org/) -->

<svg
   xmlns:dc="http://purl.org/dc/elements/1.1/"
   xmlns:cc="http://creativecommons.org/ns#"
   xmlns:rdf="http://www.w3.org/1999/02/22-rdf-syntax-ns#"
   xmlns:svg="http://www.w3.org/2000/svg"
   xmlns="http://www.w3.org/2000/svg"
   xmlns:sodipodi="http://sodipodi.sourceforge.net/DTD/sodipodi-0.dtd"
   xmlns:inkscape="http://www.inkscape.org/namespaces/inkscape"
   width="24"
   height="24"
   id="svg2999"
   version="1.1"
   inkscape:version="0.48.5 r10040"
   sodipodi:docname="reference-set.svg"
   inkscape:export-filename="D:\DATA\cabrian\Desktop\icons\reference-set-plant-24.png"
   inkscape:export-xdpi="300"
   inkscape:export-ydpi="300">
  <defs
     id="defs3001" />
  <sodipodi:namedview
     id="base"
     pagecolor="#ffffff"
     bordercolor="#666666"
     borderopacity="1.0"
     inkscape:pageopacity="0.0"
     inkscape:pageshadow="2"
     inkscape:zoom="11.197802"
     inkscape:cx="-6.8153871"
     inkscape:cy="18.147604"
     inkscape:current-layer="layer1"
     showgrid="true"
     inkscape:grid-bbox="true"
     inkscape:document-units="px"
     inkscape:window-width="1920"
     inkscape:window-height="1018"
     inkscape:window-x="-8"
     inkscape:window-y="-8"
     inkscape:window-maximized="1">
    <inkscape:grid
       type="xygrid"
       id="grid3019"
       empspacing="5"
       visible="true"
       enabled="true"
       snapvisiblegridlinesonly="true" />
  </sodipodi:namedview>
  <metadata
     id="metadata3004">
    <rdf:RDF>
      <cc:Work
         rdf:about="">
        <dc:format>image/svg+xml</dc:format>
        <dc:type
           rdf:resource="http://purl.org/dc/dcmitype/StillImage" />
        <dc:title></dc:title>
      </cc:Work>
    </rdf:RDF>
  </metadata>
  <g
     id="layer1"
     inkscape:label="Layer 1"
     inkscape:groupmode="layer"
     transform="translate(0,-8)">
    <path
       style="color:#000000;fill:#fd3301;fill-opacity:1;stroke:none;stroke-width:3;marker:none;visibility:visible;display:inline;overflow:visible;enable-background:accumulate"
       d="M 0,8 0,20 24,20 24,8 0,8 z m 2.7692308,3.529412 8.3076922,0 0,2.823529 -8.3076922,0 0,-2.823529 z m 10.1538462,0 8.307693,0 0,2.823529 -8.307693,0 0,-2.823529 z m -10.1538462,4.235294 8.3076922,0 0,2.823529 -8.3076922,0 0,-2.823529 z m 10.1538462,0 8.307693,0 0,2.823529 -8.307693,0 0,-2.823529 z"
       id="rect4817"
       inkscape:connector-curvature="0" />
    <path
       style="color:#000000;fill:#cccccf;fill-opacity:1;stroke:none;stroke-width:3;marker:none;visibility:visible;display:inline;overflow:visible;enable-background:accumulate"
       d="m 0,19.970588 0,12 24,0 0,-12 -24,0 z M 2.769232,23.5 l 8.30769,0 0,2.823529 -8.30769,0 0,-2.823529 z m 10.153844,0 8.307692,0 0,2.823529 -8.307692,0 0,-2.823529 z m -10.153844,4.235294 8.30769,0 0,2.823529 -8.30769,0 0,-2.823529 z m 10.153844,0 8.307692,0 0,2.823529 -8.307692,0 0,-2.823529 z"
       id="rect4817-8"
       inkscape:connector-curvature="0" />
  </g>
</svg>
